<svg t="1637731583012" class="icon" viewBox="0 0 1024 1024" version="1.1" xmlns="http://www.w3.org/2000/svg" p-id="8685" width="200" height="200">
	<path d="M824.32 977.92H209.92c-73.216 0-133.12-59.904-133.12-133.12V230.4c0-73.216 59.904-133.12 133.12-133.12h307.2c16.896 0 30.72 13.824 30.72 30.72s-13.824 30.72-30.72 30.72H209.92c-39.424 0-71.68 32.256-71.68 71.68v614.4c0 39.424 32.256 71.68 71.68 71.68h614.4c39.424 0 71.68-32.256 71.68-71.68v-307.2c0-16.896 13.824-30.72 30.72-30.72s30.72 13.824 30.72 30.72v307.2c0 73.216-59.904 133.12-133.12 133.12z" fill="#A32A1F" p-id="8686">
	</path>
	<path d="M499.712 727.04c-7.68 0-15.872-3.072-21.504-9.216-11.776-11.776-11.776-31.232 0-43.52L875.52 276.992c12.8-12.8 19.968-29.696 19.968-47.616s-7.168-34.816-19.968-47.616c-12.8-12.8-29.696-19.968-47.616-19.968s-34.816 7.168-47.616 19.968l-399.36 399.36c-11.776 11.776-31.232 11.776-43.52 0-11.776-11.776-11.776-31.232 0-43.52l399.36-399.36c24.576-24.576 56.832-37.888 91.136-37.888s67.072 13.312 91.136 37.888 37.888 56.832 37.888 91.136-13.312 67.072-37.888 91.136l-397.312 397.312c-6.144 6.144-13.824 9.216-22.016 9.216z" fill="#E09527" p-id="8687">
	</path>
	<path d="M286.208 793.088c-8.192 0-16.384-3.584-22.528-9.728-7.68-8.192-10.24-19.968-7.168-30.208L317.44 562.688c1.536-4.608 4.096-9.216 7.68-12.288 24.576-24.576 56.832-37.888 91.136-37.888 34.304 0 67.072 13.312 91.136 37.888 24.576 24.576 37.888 56.832 37.888 91.136s-13.312 67.072-37.888 91.136c-4.096 4.096-8.704 6.656-13.824 8.192l-199.168 51.712c-3.072 0.512-5.632 0.512-8.192 0.512z m87.04-204.288l-40.96 130.048 136.704-35.328c9.728-11.776 14.848-26.624 14.848-41.984 0-17.92-7.168-34.816-19.968-47.616-12.8-12.8-29.696-19.968-47.616-19.968-15.872 0-30.72 5.12-43.008 14.848z" fill="#E09527" p-id="8688">
	</path>
</svg>
