<svg t="1637731618207" class="icon" viewBox="0 0 1024 1024" version="1.1" xmlns="http://www.w3.org/2000/svg" p-id="8959" width="200" height="200">
	<path d="M921.6 942.08H102.4c-16.896 0-30.72-13.824-30.72-30.72s13.824-30.72 30.72-30.72h819.2c16.896 0 30.72 13.824 30.72 30.72s-13.824 30.72-30.72 30.72zM210.432 587.264c-4.096 0-8.704-1.024-12.8-2.56-15.36-7.168-22.016-25.088-15.36-40.96l139.264-304.128c7.168-15.36 25.088-22.016 40.96-15.36 15.36 7.168 22.016 25.088 15.36 40.96l-139.264 304.128c-5.12 11.264-16.384 17.92-28.16 17.92zM664.064 679.936c-10.24 0-20.48-5.12-26.112-14.336L390.656 268.8c-9.216-14.336-4.608-33.28 9.728-42.496 14.336-9.216 33.28-4.608 42.496 9.728l247.296 396.8c9.216 14.336 4.608 33.28-9.728 42.496-5.12 3.072-10.752 4.608-16.384 4.608zM736.256 669.696c-3.584 0-7.168-0.512-10.752-2.048-15.872-6.144-24.064-23.552-17.92-39.424l77.312-206.336c6.144-15.872 23.552-24.064 39.424-17.92 15.872 6.144 24.064 23.552 17.92 39.424l-77.312 206.336c-4.608 12.288-16.384 19.968-28.672 19.968z" fill="#A32A1F" p-id="8960">
	</path>
	<path d="M174.592 726.528c-56.832 0-102.912-46.08-102.912-102.912s46.08-102.912 102.912-102.912c56.832 0 102.912 46.08 102.912 102.912s-46.08 102.912-102.912 102.912z m0-144.384c-23.04 0-41.472 18.432-41.472 41.472s18.432 41.472 41.472 41.472 41.472-18.432 41.472-41.472-18.944-41.472-41.472-41.472zM385.536 288.768c-56.832 0-102.912-46.08-102.912-102.912s46.08-102.912 102.912-102.912c56.832 0 102.912 46.08 102.912 102.912s-46.08 102.912-102.912 102.912z m0-144.384c-23.04 0-41.472 18.432-41.472 41.472s18.432 41.472 41.472 41.472 41.472-18.432 41.472-41.472-18.432-41.472-41.472-41.472zM699.904 814.08c-56.832 0-102.912-46.08-102.912-102.912 0-56.832 46.08-102.912 102.912-102.912s102.912 46.08 102.912 102.912c0 56.832-46.08 102.912-102.912 102.912z m0-144.384c-23.04 0-41.472 18.432-41.472 41.472s18.432 41.472 41.472 41.472 41.472-18.432 41.472-41.472-18.432-41.472-41.472-41.472zM844.288 468.992c-56.832 0-102.912-46.08-102.912-102.912s46.08-102.912 102.912-102.912c56.832 0 102.912 46.08 102.912 102.912s-46.08 102.912-102.912 102.912z m0-144.384c-23.04 0-41.472 18.432-41.472 41.472s18.432 41.472 41.472 41.472 41.472-18.432 41.472-41.472-18.432-41.472-41.472-41.472z" fill="#E09527" p-id="8961">
	</path>
</svg>
