<svg t="1637731634965" class="icon" viewBox="0 0 1024 1024" version="1.1" xmlns="http://www.w3.org/2000/svg" p-id="9097" width="200" height="200">
	<path d="M563.2 286.72c-16.896 0-30.72-13.824-30.72-30.72V133.12H389.12v122.88c0 16.896-13.824 30.72-30.72 30.72s-30.72-13.824-30.72-30.72V102.4c0-16.896 13.824-30.72 30.72-30.72h204.8c16.896 0 30.72 13.824 30.72 30.72v153.6c0 16.896-13.824 30.72-30.72 30.72zM563.2 952.32H358.4c-16.896 0-30.72-13.824-30.72-30.72v-358.4c0-16.896 13.824-30.72 30.72-30.72s30.72 13.824 30.72 30.72v327.68h143.36v-327.68c0-16.896 13.824-30.72 30.72-30.72s30.72 13.824 30.72 30.72v358.4c0 16.896-13.824 30.72-30.72 30.72z" fill="#A32A1F" p-id="9098">
	</path>
	<path d="M768 593.92H204.8c-73.216 0-133.12-59.904-133.12-133.12V358.4c0-73.216 59.904-133.12 133.12-133.12h563.2c8.192 0 15.872 3.072 21.504 9.216l153.6 153.6c11.776 11.776 11.776 31.232 0 43.52l-153.6 153.6c-5.632 5.632-13.312 8.704-21.504 8.704zM204.8 286.72c-39.424 0-71.68 32.256-71.68 71.68v102.4c0 39.424 32.256 71.68 71.68 71.68h550.4l122.88-122.88-122.88-122.88H204.8z" fill="#E09527" p-id="9099">
	</path>
</svg>
