<svg t="1637731187864" class="icon" viewBox="0 0 1024 1024" version="1.1" xmlns="http://www.w3.org/2000/svg" p-id="8281" width="200" height="200">
	<path d="M613.376 623.616c9.728 0 18.432-4.608 23.552-12.288 4.608-5.632 5.632-12.8 4.608-20.48-1.536-7.68-6.144-14.336-12.8-18.944-56.32-34.816-119.296-53.248-182.784-53.76H445.44c-94.72 0-171.52-82.432-171.52-183.296 0-101.376 77.824-183.296 173.056-183.296 94.72 0 171.52 82.432 171.52 183.296 0 36.352-9.728 70.144-28.16 100.352-4.096 6.144-5.12 13.824-3.072 21.504 1.536 7.168 6.144 13.312 12.8 17.408 4.096 2.56 9.216 4.096 14.336 4.096 9.728 0 19.456-5.12 24.576-13.312 24.064-37.376 36.352-81.92 36.864-129.536-0.512-131.584-102.912-239.616-229.376-239.616-125.952 0-229.376 107.008-229.376 239.104 0 63.488 23.552 123.904 66.56 168.96 12.8 13.312 27.136 25.088 41.984 35.328-141.312 50.688-243.2 192-243.712 358.4 0 15.36 12.8 28.16 27.648 28.16 9.216 0 16.896-3.584 22.016-9.728 4.608-5.632 5.632-12.8 4.608-20.48 1.024-173.568 131.584-315.392 293.376-321.536 5.12 0.512 10.24 0.512 15.36 0.512 2.048 0 4.096-0.512 6.144-1.024 51.2 2.048 101.888 17.408 146.432 45.056 5.12 3.584 10.24 5.12 15.872 5.12z" fill="#A32A1F" p-id="8282">
	</path>
	<path d="M901.12 747.008l-261.12-0.512c-16.896 0-30.72-13.824-30.72-30.72s13.824-30.72 30.72-30.72l261.12 0.512c16.896 0 30.72 13.824 30.72 30.72s-13.824 30.72-30.72 30.72zM537.6 748.032s-0.512 0 0 0l-51.712-0.512c-16.896 0-30.72-14.336-30.208-31.232 0-16.896 13.824-30.208 30.72-30.208h0.512l51.2 0.512c16.896 0 30.72 14.336 30.208 31.232 0 16.896-13.824 30.208-30.72 30.208zM901.12 869.888l-261.12-0.512c-16.896 0-30.72-13.824-30.72-30.72s13.824-30.72 30.72-30.72l261.12 0.512c16.896 0 30.72 13.824 30.72 30.72s-13.824 30.72-30.72 30.72zM537.6 870.912s-0.512 0 0 0l-51.712-0.512c-16.896 0-30.72-14.336-30.208-31.232 0-16.896 13.824-30.208 30.72-30.208h0.512l51.2 0.512c16.896 0 30.72 14.336 30.208 31.232 0 16.896-13.824 30.208-30.72 30.208z" fill="#E09527" p-id="8283">
	</path>
</svg>
