<svg t="1637731603962" class="icon" viewBox="0 0 1024 1024" version="1.1" xmlns="http://www.w3.org/2000/svg" p-id="8820" width="200" height="200">
	<path d="M527.36 946.176c-5.632 0-11.264-1.536-15.872-4.608-72.192-44.544-204.8-49.152-336.896-47.104-23.552 0.512-45.056-8.704-61.952-24.576-16.384-16.384-25.6-37.376-25.6-60.416V161.792c0-46.08 37.888-84.48 84.48-85.504 186.368-3.072 314.368 5.632 375.808 58.88 6.656 5.632 10.752 14.336 10.752 23.04v756.736c0 11.264-6.144 21.504-15.872 26.624-4.608 3.584-9.728 4.608-14.848 4.608z m-308.224-113.152c113.664 0 207.36 7.168 277.504 33.792V174.592c-66.048-40.448-238.592-37.888-324.096-36.352-13.312 0-24.064 10.752-24.064 24.064v647.68c0 6.144 2.56 12.288 7.168 16.896 4.608 4.608 11.264 7.168 17.92 7.168 15.36-1.024 30.72-1.024 45.568-1.024z" fill="#A32A1F" p-id="8821">
	</path>
	<path d="M527.36 946.176c-5.12 0-10.24-1.536-14.848-4.096-9.728-5.632-15.872-15.872-15.872-26.624V158.72c0-8.704 4.096-17.408 10.752-23.04 61.44-53.248 189.44-61.952 375.808-58.88 46.592 0.512 84.48 38.912 84.48 85.504v647.68c0 23.04-9.216 44.544-25.6 60.416-16.384 16.384-38.4 25.088-61.952 24.576-132.096-2.048-264.704 2.56-336.896 47.104-4.608 2.56-10.24 4.096-15.872 4.096z m30.72-771.584v692.736c79.36-29.696 188.416-35.328 323.072-33.28h0.512c6.656 0 12.8-2.56 17.408-7.168 4.608-4.608 7.168-10.24 7.168-16.896V161.792c0-12.8-10.752-23.552-24.064-24.064-85.504-1.024-258.048-4.096-324.096 36.864z" fill="#A32A1F" p-id="8822">
	</path>
	<path d="M399.36 353.28H245.76c-16.896 0-30.72-13.824-30.72-30.72s13.824-30.72 30.72-30.72h153.6c16.896 0 30.72 13.824 30.72 30.72s-13.824 30.72-30.72 30.72zM399.36 522.24H245.76c-16.896 0-30.72-13.824-30.72-30.72s13.824-30.72 30.72-30.72h153.6c16.896 0 30.72 13.824 30.72 30.72s-13.824 30.72-30.72 30.72zM399.36 691.2H245.76c-16.896 0-30.72-13.824-30.72-30.72s13.824-30.72 30.72-30.72h153.6c16.896 0 30.72 13.824 30.72 30.72s-13.824 30.72-30.72 30.72zM808.96 353.28h-153.6c-16.896 0-30.72-13.824-30.72-30.72s13.824-30.72 30.72-30.72h153.6c16.896 0 30.72 13.824 30.72 30.72s-13.824 30.72-30.72 30.72zM808.96 522.24h-153.6c-16.896 0-30.72-13.824-30.72-30.72s13.824-30.72 30.72-30.72h153.6c16.896 0 30.72 13.824 30.72 30.72s-13.824 30.72-30.72 30.72zM808.96 691.2h-153.6c-16.896 0-30.72-13.824-30.72-30.72s13.824-30.72 30.72-30.72h153.6c16.896 0 30.72 13.824 30.72 30.72s-13.824 30.72-30.72 30.72z" fill="#E09527" p-id="8823">
	</path>
</svg>
