<svg t="1637734207202" class="icon" viewBox="0 0 1024 1024" version="1.1" xmlns="http://www.w3.org/2000/svg" p-id="6823" width="200" height="200">
	<path d="M508.928 956.928c-4.608 0-9.216-1.024-13.824-3.072l-409.6-204.8c-10.752-5.12-16.896-15.872-16.896-27.648 0-11.776 7.168-22.528 17.408-27.648l209.408-99.328 26.112 55.296L168.96 721.92l339.456 169.472 339.456-169.472-151.552-71.68 26.112-55.296 209.408 99.328c10.752 5.12 17.408 15.872 17.408 27.648 0 11.776-6.656 22.528-16.896 27.648l-409.6 204.8c-4.096 1.536-9.216 2.56-13.824 2.56z" fill="#A32A1F" p-id="6824">
	</path>
	<path d="M508.928 753.152c-4.608 0-9.216-1.024-13.824-3.072l-409.6-204.8c-10.752-5.12-16.896-15.872-16.896-27.648 0-11.776 7.168-22.528 17.408-27.648l209.408-99.328 26.112 55.296L168.96 518.144l339.456 169.472 339.456-169.472L696.32 445.952l26.112-55.296L931.84 489.984c10.752 5.12 17.408 15.872 17.408 27.648 0 11.776-6.656 22.528-16.896 27.648l-409.6 204.8c-4.096 2.048-9.216 3.072-13.824 3.072z" fill="#E09527" p-id="6825">
	</path>
	<path d="M508.928 548.864c-4.608 0-9.216-1.024-13.824-3.072l-409.6-204.8c-10.752-5.12-16.896-15.872-16.896-27.648 0-11.776 7.168-22.528 17.408-27.648l409.6-194.048c8.192-4.096 17.92-4.096 26.112 0l409.6 194.048c10.752 5.12 17.408 15.872 17.408 27.648 0 11.776-6.656 22.528-16.896 27.648l-409.6 204.8c-3.584 2.048-8.704 3.072-13.312 3.072zM169.472 314.368l339.456 169.472 339.456-169.472L508.928 153.6 169.472 314.368z" fill="#A32A1F" p-id="6826">
	</path>
</svg>
