<svg t="1637731650362" class="icon" viewBox="0 0 1024 1024" version="1.1" xmlns="http://www.w3.org/2000/svg" p-id="9231" width="200" height="200">
	<path d="M819.2 952.32H204.8c-73.216 0-133.12-59.904-133.12-133.12V204.8c0-73.216 59.904-133.12 133.12-133.12h614.4c73.216 0 133.12 59.904 133.12 133.12v614.4c0 73.216-59.904 133.12-133.12 133.12zM204.8 133.12c-39.424 0-71.68 32.256-71.68 71.68v614.4c0 39.424 32.256 71.68 71.68 71.68h614.4c39.424 0 71.68-32.256 71.68-71.68V204.8c0-39.424-32.256-71.68-71.68-71.68H204.8z" fill="#A32A1F" p-id="9232">
	</path>
	<path d="M512 819.2c-16.896 0-30.72-13.824-30.72-30.72V235.52c0-16.896 13.824-30.72 30.72-30.72s30.72 13.824 30.72 30.72v552.96c0 16.896-13.824 30.72-30.72 30.72z" fill="#A32A1F" p-id="9233">
	</path>
	<path d="M788.48 757.76H235.52c-16.896 0-30.72-13.824-30.72-30.72s13.824-30.72 30.72-30.72h552.96c16.896 0 30.72 13.824 30.72 30.72s-13.824 30.72-30.72 30.72z" fill="#A32A1F" p-id="9234">
	</path>
	<path d="M389.12 612.864H235.52c-16.896 0-30.72-13.824-30.72-30.72s13.824-30.72 30.72-30.72h153.6c16.896 0 30.72 13.824 30.72 30.72s-13.824 30.72-30.72 30.72zM389.12 467.456H235.52c-16.896 0-30.72-13.824-30.72-30.72s13.824-30.72 30.72-30.72h153.6c16.896 0 30.72 13.824 30.72 30.72s-13.824 30.72-30.72 30.72zM389.12 322.56H235.52c-16.896 0-30.72-13.824-30.72-30.72s13.824-30.72 30.72-30.72h153.6c16.896 0 30.72 13.824 30.72 30.72s-13.824 30.72-30.72 30.72zM788.48 612.864h-153.6c-16.896 0-30.72-13.824-30.72-30.72s13.824-30.72 30.72-30.72h153.6c16.896 0 30.72 13.824 30.72 30.72s-13.824 30.72-30.72 30.72zM788.48 467.456h-153.6c-16.896 0-30.72-13.824-30.72-30.72s13.824-30.72 30.72-30.72h153.6c16.896 0 30.72 13.824 30.72 30.72s-13.824 30.72-30.72 30.72zM788.48 322.56h-153.6c-16.896 0-30.72-13.824-30.72-30.72s13.824-30.72 30.72-30.72h153.6c16.896 0 30.72 13.824 30.72 30.72s-13.824 30.72-30.72 30.72z" fill="#E09527" p-id="9235">
	</path>
</svg>
