<svg t="1637731566114" class="icon" viewBox="0 0 1024 1024" version="1.1" xmlns="http://www.w3.org/2000/svg" p-id="8549" width="200" height="200">
	<path d="M296.96 547.84c-6.656 0-12.8-2.048-18.432-6.144-13.824-10.24-16.384-29.184-6.144-43.008l138.24-184.32c10.24-13.312 29.184-16.384 42.496-6.656L558.08 383.488l135.168-162.304c10.752-12.8 30.208-14.848 43.52-4.096 12.8 10.752 14.848 30.208 4.096 43.52l-153.6 184.32c-10.24 12.288-28.672 14.848-41.472 5.12L441.856 375.296l-120.32 160.256c-6.144 8.192-15.36 12.288-24.576 12.288zM691.2 819.2H240.64c-16.896 0-30.72-13.824-30.72-30.72s13.824-30.72 30.72-30.72h450.56c16.896 0 30.72 13.824 30.72 30.72s-13.824 30.72-30.72 30.72z" fill="#E09527" p-id="8550">
	</path>
	<path d="M916.48 957.44H230.4c-90.112 0-163.84-73.728-163.84-163.84s73.728-163.84 163.84-163.84h686.08c16.896 0 30.72 13.824 30.72 30.72s-13.824 30.72-30.72 30.72H230.4c-56.32 0-102.4 46.08-102.4 102.4s46.08 102.4 102.4 102.4h686.08c16.896 0 30.72 13.824 30.72 30.72s-13.824 30.72-30.72 30.72z" fill="#A32A1F" p-id="8551">
	</path>
	<path d="M905.216 949.76c-4.608 0-9.216-1.024-13.312-3.072-56.32-27.136-93.184-84.992-93.184-147.968 0-68.096 43.008-130.048 107.008-153.6 15.872-5.632 33.792 2.048 39.424 18.432s-2.048 33.792-18.432 39.424c-39.936 14.848-67.072 53.248-67.072 96.256 0 38.912 23.04 75.264 58.368 92.16 15.36 7.168 21.504 25.6 14.336 40.96-5.12 10.752-15.872 17.408-27.136 17.408z" fill="#A32A1F" p-id="8552">
	</path>
	<path d="M97.28 803.84c-16.896 0-30.72-13.824-30.72-30.72V234.496C66.56 147.456 137.216 76.8 224.256 76.8h566.272c86.016 0 156.672 70.144 156.672 156.672V650.24c0 16.896-13.824 30.72-30.72 30.72s-30.72-13.824-30.72-30.72V233.472c0-52.224-42.496-95.232-95.232-95.232H224.256C171.52 138.24 128 181.76 128 234.496V773.12c0 16.896-13.824 30.72-30.72 30.72z" fill="#A32A1F" p-id="8553">
	</path>
</svg>
