<svg t="1637731549291" class="icon" viewBox="0 0 1024 1024" version="1.1" xmlns="http://www.w3.org/2000/svg" p-id="8415" width="200" height="200">
	<path d="M921.6 645.12H445.44v-61.44h419.84c-8.704-20.992-13.312-43.52-13.312-66.56s4.608-45.568 13.312-66.56H445.44V389.12h476.16c12.288 0 23.552 7.168 28.16 18.432 4.608 11.264 2.56 24.576-6.144 33.28-19.456 20.48-30.208 47.616-30.208 76.288s10.752 55.296 30.208 76.288c8.192 8.704 10.752 22.016 6.144 33.28-4.608 11.264-15.872 18.432-28.16 18.432zM250.88 645.12H153.6c-45.056 0-81.92-36.864-81.92-81.92V471.04c0-45.056 36.864-81.92 81.92-81.92h97.28v61.44H153.6c-11.264 0-20.48 9.216-20.48 20.48v92.16c0 11.264 9.216 20.48 20.48 20.48h97.28v61.44zM921.6 957.44H153.6c-45.056 0-81.92-36.864-81.92-81.92v-92.16c0-45.056 36.864-81.92 81.92-81.92h97.28v61.44H153.6c-11.264 0-20.48 9.216-20.48 20.48v92.16c0 11.264 9.216 20.48 20.48 20.48h711.68c-8.704-20.992-13.312-43.52-13.312-66.56s4.608-45.568 13.312-66.56H445.44v-61.44h476.16c12.288 0 23.552 7.168 28.16 18.432 4.608 11.264 2.56 24.576-6.144 33.28-19.456 20.48-30.208 47.616-30.208 76.288s10.752 55.296 30.208 76.288c8.192 8.704 10.752 22.016 6.144 33.28-4.608 11.264-15.872 18.432-28.16 18.432zM921.6 332.8H445.44V271.36h419.84c-8.704-20.992-13.312-43.52-13.312-66.56s4.608-45.568 13.312-66.56H153.6c-11.264 0-20.48 9.216-20.48 20.48v92.16c0 11.264 9.216 20.48 20.48 20.48h97.28v61.44H153.6c-45.056 0-81.92-36.864-81.92-81.92V158.72c0-45.056 36.864-81.92 81.92-81.92h768c12.288 0 23.552 7.168 28.16 18.432 4.608 11.264 2.56 24.576-6.144 33.28-19.456 20.48-30.208 47.616-30.208 76.288s10.752 55.296 30.208 76.288c8.192 8.704 10.752 22.016 6.144 33.28-4.608 11.264-15.872 18.432-28.16 18.432z" fill="#A32A1F" p-id="8416">
	</path>
	<path d="M445.44 860.16c-8.192 0-15.872-3.072-21.504-9.216L348.16 775.68l-75.776 75.776c-8.704 8.704-22.016 11.264-33.28 6.656-11.264-4.608-18.944-15.872-18.944-28.16V256c0-45.056 34.816-81.92 76.8-81.92h102.4c42.496 0 76.8 36.864 76.8 81.92v573.44c0 12.288-7.68 23.552-18.944 28.16-3.584 2.048-7.68 2.56-11.776 2.56z m-97.28-158.72c7.68 0 15.872 3.072 21.504 9.216l45.056 45.056V256c0-11.264-7.168-20.48-15.36-20.48H296.96c-8.704 0-15.36 9.216-15.36 20.48v499.2l45.056-45.056c5.632-5.632 13.824-8.704 21.504-8.704z" fill="#E09527" p-id="8417">
	</path>
</svg>
